<svg width="20" height="20" viewBox="0 0 20 20" fill="none" xmlns="http://www.w3.org/2000/svg">
<path d="M6.28992 5.65377C6.05826 5.65377 5.8318 5.72247 5.63918 5.85117C5.44656 5.97988 5.29643 6.16281 5.20778 6.37684C5.11912 6.59087 5.09593 6.82638 5.14112 7.05359C5.18632 7.2808 5.29787 7.48951 5.46169 7.65332C5.6255 7.81713 5.8342 7.92869 6.06141 7.97388C6.28863 8.01908 6.52414 7.99588 6.73816 7.90723C6.95219 7.81857 7.13513 7.66845 7.26383 7.47582C7.39254 7.2832 7.46123 7.05674 7.46123 6.82508C7.46123 6.51443 7.33783 6.2165 7.11816 5.99684C6.8985 5.77718 6.60057 5.65377 6.28992 5.65377ZM16.9254 9.33168L10.3583 2.75674C10.2853 2.68437 10.1988 2.62711 10.1036 2.58825C10.0085 2.54939 9.90662 2.52969 9.80385 2.53029H2.776C2.5689 2.53029 2.37028 2.61256 2.22384 2.759C2.0774 2.90544 1.99513 3.10406 1.99513 3.31116V10.339C1.99454 10.4418 2.01423 10.5436 2.05309 10.6388C2.09195 10.7339 2.14921 10.8205 2.22158 10.8934L8.79652 17.4606C9.23576 17.8993 9.83118 18.1457 10.452 18.1457C11.0728 18.1457 11.6682 17.8993 12.1074 17.4606L16.9254 12.6816C17.3641 12.2424 17.6105 11.647 17.6105 11.0262C17.6105 10.4054 17.3641 9.80997 16.9254 9.37072V9.33168ZM15.8244 11.5337L10.9986 16.3517C10.8523 16.4972 10.6544 16.5788 10.4481 16.5788C10.2418 16.5788 10.0439 16.4972 9.89755 16.3517L3.55687 10.0188V4.09203H9.48369L15.8244 10.4327C15.8967 10.5057 15.954 10.5922 15.9929 10.6873C16.0317 10.7825 16.0514 10.8844 16.0508 10.9871C16.05 11.192 15.9686 11.3883 15.8244 11.5337Z" fill="white"/>
</svg>
