<svg width="18" height="18" viewBox="0 0 18 18" fill="none" xmlns="http://www.w3.org/2000/svg">
<path fill-rule="evenodd" clip-rule="evenodd" d="M0 9C0 5.40486 0 3.60729 0.856692 2.31255C1.23925 1.73439 1.73439 1.23925 2.31255 0.856692C3.60729 0 5.40486 0 9 0C12.5951 0 14.3927 0 15.6874 0.856692C16.2656 1.23925 16.7608 1.73439 17.1433 2.31255C18 3.60729 18 5.40486 18 9C18 12.5951 18 14.3927 17.1433 15.6874C16.7608 16.2656 16.2656 16.7608 15.6874 17.1433C14.3927 18 12.5951 18 9 18C5.40486 18 3.60729 18 2.31255 17.1433C1.73439 16.7608 1.23925 16.2656 0.856692 15.6874C0 14.3927 0 12.5951 0 9ZM13.6596 9.00017C13.6596 11.5735 11.5735 13.6596 9.0002 13.6596C6.42688 13.6596 4.34079 11.5735 4.34079 9.00017C4.34079 6.42685 6.42688 4.34076 9.0002 4.34076C11.5735 4.34076 13.6596 6.42685 13.6596 9.00017ZM9.0002 12.0832C10.7029 12.0832 12.0832 10.7029 12.0832 9.00017C12.0832 7.29747 10.7029 5.91716 9.0002 5.91716C7.29751 5.91716 5.9172 7.29747 5.9172 9.00017C5.9172 10.7029 7.29751 12.0832 9.0002 12.0832ZM13.8436 5.20149C14.4483 5.20149 14.9385 4.71132 14.9385 4.10666C14.9385 3.50201 14.4483 3.01184 13.8436 3.01184C13.239 3.01184 12.7488 3.50201 12.7488 4.10666C12.7488 4.71132 13.239 5.20149 13.8436 5.20149Z" fill="white"/>
</svg>
