<svg width="20" height="26" viewBox="0 0 20 26" fill="none" xmlns="http://www.w3.org/2000/svg">
<path d="M19.5775 22.6829C19.8457 23.0205 19.9964 23.4783 19.9964 23.9556C19.9964 24.433 19.8457 24.8908 19.5775 25.2284C19.3092 25.5659 18.9454 25.7555 18.566 25.7555C18.1866 25.7555 17.8228 25.5659 17.5545 25.2284L9.9994 15.7189L2.44191 25.2254C2.17365 25.5629 1.80982 25.7525 1.43044 25.7525C1.05106 25.7525 0.687226 25.5629 0.418966 25.2254C0.150707 24.8878 3.99738e-09 24.43 0 23.9526C-3.99738e-09 23.4753 0.150707 23.0175 0.418966 22.6799L7.97646 13.1734L0.421346 3.66391C0.153086 3.32636 0.00237999 2.86855 0.00237999 2.39118C0.00238 1.91382 0.153086 1.45601 0.421346 1.11846C0.689605 0.780912 1.05344 0.59128 1.43282 0.59128C1.8122 0.59128 2.17603 0.780912 2.44429 1.11846L9.9994 10.628L17.5569 1.11696C17.8252 0.779415 18.189 0.589783 18.5684 0.589783C18.9477 0.589783 19.3116 0.779415 19.5798 1.11696C19.8481 1.45451 19.9988 1.91232 19.9988 2.38969C19.9988 2.86705 19.8481 3.32486 19.5798 3.66241L12.0224 13.1734L19.5775 22.6829Z" fill="white"/>
</svg>
